{"title":"The.Night.Listener.2006.DVDRiP.XviD.OPTIONAL-MULTISUB-Zen_Bud","uid":5937755,"size":1413976264,"categoryP":"video","categoryS":"movies","magnet":"?xt=urn:btih:47a6b351de6713eeffc4a9535f0762d2b8363079&amp;dn=The.Night.Listener.2006.DVDRiP.XviD.OPTIONAL-MULTISUB-Zen_Bud&amp;tr=udp%3A%2F%2Ftracker.openbittorrent.com%3A80&amp;tr=udp%3A%2F%2Fopen.demonii.com%3A1337&amp;tr=udp%3A%2F%2Ftracker.coppersurfer.tk%3A6969&amp;tr=udp%3A%2F%2Fexodus.desync.com%3A6969","seeders":0,"leechers":0,"uploader":"Zen_Bud","files":-1,"time":1289029243,"description":"******* The.Night.Listener.2006.DVDRiP.XviD.OPTIONAL-MULTISUB-Zen_Bud ********\n\nFormat                           : AVI\nFormat/Info                      : Audio Video Interleave\nFile size                        : 1.30 GiB\nDuration                         : 1h 26mn\nOverall bit rate                 : 2 163 Kbps\n\nVideo\n\nFormat                           : MPEG-4 Visual\nCodec ID/Hint                    : XviD\nDuration                         : 1h 26mn\nBit rate                         : 2 022 Kbps\nWidth                            : 720 pixels\nHeight                           : 552 pixels\nDisplay aspect ratio             : 1.855\nStream size                      : 1.22 GiB (93%)\nWriting library                  : XviD 1.1.2 (UTC 2006-11-01)\n\nAudio\n\nFormat                           : MPEG Audio\nCodec ID/Hint                    : MP3\nDuration                         : 1h 26mn\nBit rate                         : 128 Kbps\nChannel(s)                       : 2 channels\nSampling rate                    : 48.0 KHz\nStream size                      : 79.0 MiB (6%)\nLanguage                         : English\n\nText #1\nLanguage                         : Swedish\n\nText #2\nLanguage                         : Norwegian\n\nText #3\nLanguage                         : Danish\n\nText #4\nLanguage                         : Finnish\n\nText #5\nLanguage                         : Icelandic\n\n\nIn the midst of his crumbling relationship, a radio show host begins speaking to his biggest fan, a young boy, via the telephone. But when questions about the boy's identity come up, the host's life is thrown into chaos.","torrent":{"xt":"urn:btih:47a6b351de6713eeffc4a9535f0762d2b8363079","amp;dn":"The.Night.Listener.2006.DVDRiP.XviD.OPTIONAL-MULTISUB-Zen_Bud","amp;tr":["udp%3A%2F%2Ftracker.openbittorrent.com%3A80","udp%3A%2F%2Fopen.demonii.com%3A1337","udp%3A%2F%2Ftracker.coppersurfer.tk%3A6969","udp%3A%2F%2Fexodus.desync.com%3A6969"],"infoHash":"47a6b351de6713eeffc4a9535f0762d2b8363079","infoHashBuffer":{"type":"Buffer","data":[71,166,179,81,222,103,19,238,255,196,169,83,95,7,98,210,184,54,48,121]},"announce":[],"urlList":[]}}